# xmcd
#
# Track frame offsets:
#  225
#  10917
#  21971
#  33697
#  45650
#  56229
#  66862
#  76166
#  88205
#  98790
#  112250
#  125607
#  135626
#  147747
#  162982
#  173109
#
# Disc length: 2400 seconds
#
# Revision: 0
# Processed by: cddbd v1.4PL0 Copyright (c) Steve Scherf et al.
# Submitted via: AltoMP3_Maker 3.0
#
DISCID=eb095d10
DTITLE=Various Artist - Nashville Harmonicas
DYEAR=1900
DGENRE=
TTITLE0=Fire on The Mountain
TTITLE1=500 Miles from Home
TTITLE2=On Top of Old Smokey
TTITLE3=Streets of Laredo
TTITLE4=Oh My Darling Clementine
TTITLE5=Black Eyed Susie
TTITLE6=She'll be Comin Round the Mountain
TTITLE7=Put Your Little Foot In
TTITLE8=Red River Valley
TTITLE9=I've Been Working on the Railroad
TTITLE10=Willow Garden
TTITLE11=Oh Susanna
TTITLE12=Long, Long Ago
TTITLE13=Red Wing
TTITLE14=Down Yonder
TTITLE15=John Henry
EXTD=
EXTT0=
EXTT1=
EXTT2=
EXTT3=
EXTT4=
EXTT5=
EXTT6=
EXTT7=
EXTT8=
EXTT9=
EXTT10=
EXTT11=
EXTT12=
EXTT13=
EXTT14=
EXTT15=
PLAYORDER=
